<svg version="1.1" id="Layer_1" xmlns="http://www.w3.org/2000/svg" xmlns:xlink="http://www.w3.org/1999/xlink" x="0px" y="0px"
	 width="100%" viewBox="0 0 500 500" enable-background="new 0 0 500 500" xml:space="preserve">
<path fill="#000000" opacity="1.000000" stroke="none" 
	d="
M277.000000,501.000000 
	C184.666687,501.000000 92.833374,501.000000 1.000049,501.000000 
	C1.000033,334.333405 1.000033,167.666794 1.000016,1.000139 
	C167.666565,1.000093 334.333130,1.000093 500.999756,1.000046 
	C500.999847,167.666519 500.999847,334.333038 500.999939,500.999786 
	C426.500000,501.000000 352.000000,501.000000 277.000000,501.000000 
M432.464294,282.660126 
	C426.410614,276.715454 420.413544,270.710754 414.244934,264.887848 
	C413.269226,263.966858 410.825134,263.028137 410.234985,263.516785 
	C404.679108,268.116882 399.312195,272.953888 394.023743,277.865723 
	C389.074738,282.462250 384.376099,287.329681 379.397369,291.892426 
	C376.002472,295.003632 372.167236,297.642120 368.854889,300.830597 
	C367.938721,301.712494 368.189087,303.806244 367.904236,305.343994 
	C369.335999,305.055328 371.182648,305.238678 372.133423,304.402893 
	C379.336761,298.070923 386.369110,291.544189 393.445648,285.068298 
	C399.537903,279.493225 405.618134,273.905029 411.870972,268.169128 
	C412.580566,269.148743 413.232117,270.048218 413.250214,271.220825 
	C412.398041,272.737366 411.866425,274.610413 410.641205,275.712067 
	C403.159424,282.439270 395.486084,288.952759 387.944580,295.614410 
	C382.235352,300.657593 376.627350,305.815369 370.338409,311.159119 
	C366.255890,314.802094 362.173340,318.445038 358.143768,322.040741 
	C359.592529,324.080505 361.030029,326.104401 362.467529,328.128265 
	C362.163330,328.516663 361.859131,328.905090 361.554901,329.293488 
	C358.524780,324.238953 356.132385,326.235474 353.256989,329.158813 
	C340.531616,342.096466 327.736298,354.969025 314.757324,367.651276 
	C310.951904,371.369690 310.262085,375.353088 311.587708,380.133575 
	C311.742310,380.691132 311.524689,381.351898 311.479614,381.964813 
	C311.133026,382.001343 310.786407,382.037903 310.439819,382.074432 
	C310.128387,379.739899 309.816956,377.405365 309.570343,375.556732 
	C300.047699,384.879425 290.578522,394.117096 281.148773,403.394775 
	C276.138306,408.324371 275.788483,410.776917 278.735474,417.255676 
	C279.187897,418.250275 279.129303,419.477386 279.307037,420.596954 
	C278.967194,420.662048 278.627380,420.727142 278.287537,420.792236 
	C277.726624,419.328918 277.165680,417.865570 276.184875,415.306885 
	C270.672180,420.900299 264.774078,425.774780 260.334686,431.735657 
	C256.697449,436.619476 254.784912,442.791107 252.146622,448.410095 
	C251.890396,448.955841 251.907700,449.630005 251.798019,450.244568 
	C252.524292,450.172852 253.348694,450.293549 253.954102,449.984833 
	C254.890579,449.507263 255.588089,448.524048 256.541626,448.122742 
	C265.695312,444.270020 274.314575,439.812958 280.821686,431.835938 
	C283.981720,427.962036 287.668427,424.295258 293.760742,424.768921 
	C295.501434,424.904297 297.653961,422.657562 299.255768,421.124969 
	C304.326660,416.273132 309.257050,411.272614 314.183044,406.271759 
	C318.575409,401.812561 322.889709,397.276459 327.257874,392.754181 
	C323.139771,391.785339 319.652374,390.964874 316.165009,390.144409 
	C316.366302,389.515686 316.567627,388.886963 316.768921,388.258240 
	C318.191406,388.838654 319.588928,389.492462 321.041107,389.985474 
	C325.111725,391.367523 329.513489,392.417053 332.881805,389.091644 
	C347.294800,374.862366 361.498688,360.420746 375.678040,345.957703 
	C376.161652,345.464417 375.911743,343.701019 375.408203,342.907623 
	C374.412231,341.338348 372.999054,340.033905 371.758362,338.619965 
	C372.114716,338.303894 372.471039,337.987823 372.827393,337.671753 
	C374.875397,339.473969 376.923401,341.276184 379.253571,343.716400 
	C379.800415,343.578400 380.558319,343.624695 380.863251,343.275452 
	C388.872314,334.102539 396.828583,324.883575 404.806366,315.683289 
	C412.209076,307.146179 419.626129,298.621521 427.694122,289.822998 
	C428.494537,289.011505 429.244049,287.565063 430.104034,287.496094 
	C434.323303,287.157684 433.693146,284.659485 433.674561,281.961792 
	C438.165863,278.460602 439.288055,273.391724 436.538513,269.025391 
	C433.429016,264.087463 428.000580,263.558624 419.938904,267.617096 
	C422.028687,269.646027 424.153259,271.488434 426.012390,273.568146 
	C428.469757,276.317139 430.719269,279.252014 432.464294,282.660126 
M332.500000,53.999313 
	C262.848083,53.999332 193.196136,53.959000 123.544304,54.033531 
	C109.667648,54.048378 98.777496,64.332306 98.818695,78.200348 
	C99.162720,194.008316 99.062187,309.817749 98.956520,425.626648 
	C98.946571,436.532928 109.673294,447.285919 120.232040,447.168304 
	C147.306137,446.866638 174.389496,447.435974 201.469604,447.526642 
	C202.919540,447.531525 204.644943,446.646149 205.778168,445.648315 
	C210.480820,441.507629 215.014297,437.174225 219.593216,432.893738 
	C230.092697,423.078522 240.588989,413.259888 251.074295,403.429565 
	C261.923920,393.257751 272.747986,383.058655 283.603577,372.893219 
	C293.729980,363.410614 303.927063,354.003052 314.013550,344.478302 
	C327.368347,331.867218 340.598663,319.124207 353.969025,306.529755 
	C369.358154,292.033691 384.878601,277.676697 400.221130,263.131836 
	C401.593445,261.830872 402.858826,259.595978 402.863007,257.791779 
	C403.004211,196.971558 403.012787,136.150925 402.961975,75.330414 
	C402.954498,66.388283 394.009247,56.242924 385.170563,55.077118 
	C380.314880,54.436661 375.390106,54.102386 370.491699,54.046150 
	C358.162598,53.904613 345.830750,53.999313 332.500000,53.999313 
M346.561401,400.962921 
	C330.191498,416.547333 313.821625,432.131775 297.703552,447.476471 
	C300.199036,447.330261 303.021545,447.025543 305.844543,447.021332 
	C330.840546,446.983917 355.851471,446.491119 380.826294,447.219910 
	C392.860199,447.571045 403.210938,435.263733 403.076538,425.019562 
	C402.761749,401.027588 402.993683,377.028564 402.986694,353.032379 
	C402.986328,351.817719 402.820953,350.603149 402.709320,349.071930 
	C392.969757,358.031128 383.568939,366.554077 374.312347,375.230927 
	C366.092377,382.936188 358.045105,390.825470 349.882019,398.591919 
	C349.079865,399.355133 348.001068,399.827545 346.561401,400.962921 
z"/>
<path fill="#FFFFFF" opacity="1.000000" stroke="none" 
	d="
M333.000000,53.999313 
	C345.830750,53.999313 358.162598,53.904613 370.491699,54.046150 
	C375.390106,54.102386 380.314880,54.436661 385.170563,55.077118 
	C394.009247,56.242924 402.954498,66.388283 402.961975,75.330414 
	C403.012787,136.150925 403.004211,196.971558 402.863007,257.791779 
	C402.858826,259.595978 401.593445,261.830872 400.221130,263.131836 
	C384.878601,277.676697 369.358154,292.033691 353.969025,306.529755 
	C340.598663,319.124207 327.368347,331.867218 314.013550,344.478302 
	C303.927063,354.003052 293.729980,363.410614 283.603577,372.893219 
	C272.747986,383.058655 261.923920,393.257751 251.074295,403.429565 
	C240.588989,413.259888 230.092697,423.078522 219.593216,432.893738 
	C215.014297,437.174225 210.480820,441.507629 205.778168,445.648315 
	C204.644943,446.646149 202.919540,447.531525 201.469604,447.526642 
	C174.389496,447.435974 147.306137,446.866638 120.232040,447.168304 
	C109.673294,447.285919 98.946571,436.532928 98.956520,425.626648 
	C99.062187,309.817749 99.162720,194.008316 98.818695,78.200348 
	C98.777496,64.332306 109.667648,54.048378 123.544304,54.033531 
	C193.196136,53.959000 262.848083,53.999332 333.000000,53.999313 
M326.500000,149.993439 
	C266.195648,149.994125 205.890839,150.109116 145.587540,149.856445 
	C137.702148,149.823395 127.383629,158.043182 127.000023,168.220764 
	C126.546242,180.259964 136.205856,188.991760 148.761749,188.994080 
	C216.729065,189.006668 284.696381,189.008453 352.663696,188.989349 
	C360.291321,188.987213 366.862976,186.650238 371.443787,180.092728 
	C375.589844,174.157516 376.237701,167.988510 373.087616,161.405762 
	C369.917511,154.781158 364.974792,150.336517 357.482605,150.076660 
	C347.499451,149.730392 337.495178,149.992599 326.500000,149.993439 
M263.500000,211.976059 
	C224.186539,211.977402 184.871994,212.129761 145.560516,211.850830 
	C137.835693,211.796036 127.663513,219.639587 127.028091,229.763397 
	C126.262573,241.959946 135.910080,250.988998 148.799561,250.992142 
	C216.099319,251.008560 283.399078,251.012878 350.698792,250.957703 
	C353.762665,250.955200 356.906830,250.669052 359.874878,249.945755 
	C369.928680,247.495667 376.121155,239.052628 374.887268,228.770386 
	C373.703033,218.902328 363.952454,211.730576 355.952454,211.826645 
	C325.472107,212.192627 294.984741,211.975388 263.500000,211.976059 
M335.499817,126.999321 
	C340.997162,126.999428 346.511871,127.274879 351.987366,126.929176 
	C358.663147,126.507706 365.055969,125.404800 369.918335,119.740379 
	C374.777161,114.080147 376.575378,106.787750 373.411865,99.951569 
	C370.135590,92.871658 364.936523,88.080956 356.652740,88.002846 
	C345.159576,87.894463 333.664642,87.973038 322.170471,87.972672 
	C263.198730,87.970764 204.226974,87.954910 145.255234,87.979683 
	C133.535645,87.984604 124.515419,100.587799 127.898254,111.759285 
	C131.173111,122.574181 138.919022,126.905060 150.588150,126.932938 
	C211.891769,127.079391 273.195923,127.000168 335.499817,126.999321 
M210.736557,318.154388 
	C210.369980,310.936768 210.003387,303.719147 209.660507,296.968140 
	C205.147278,296.968140 200.562454,296.689178 196.026550,297.041046 
	C190.742599,297.450897 187.064346,295.978699 184.351257,291.045532 
	C182.493423,287.667419 179.282135,285.033661 176.298630,281.637726 
	C172.034286,286.503998 168.745621,290.376434 165.306366,294.110168 
	C164.248505,295.258575 162.812759,296.783875 161.492508,296.842621 
	C155.100708,297.127014 148.689316,296.970886 141.961243,296.970886 
	C141.961243,302.425903 141.999695,308.404358 141.930023,314.381561 
	C141.915421,315.634247 141.945251,317.346313 141.200760,318.056427 
	C136.671585,322.376770 131.924393,326.468567 126.932762,330.919464 
	C130.140167,333.611237 133.178925,336.109467 136.159119,338.675781 
	C139.845917,341.850494 142.951416,345.072784 142.108078,350.789368 
	C141.440872,355.311890 141.973816,360.011414 141.973816,365.002167 
	C147.507980,365.002167 152.664856,365.385529 157.734436,364.884949 
	C162.053329,364.458466 164.479980,366.610443 166.894257,369.466766 
	C169.728058,372.819397 172.662430,376.086975 175.968704,379.866455 
	C178.290970,377.115845 180.155746,374.888672 182.040543,372.678558 
	C185.917267,368.132782 189.612000,363.670044 196.806839,364.893524 
	C200.971161,365.601593 205.354416,365.022156 210.025848,365.022156 
	C210.025848,358.984375 209.836990,353.352356 210.130783,347.745605 
	C210.230301,345.846466 211.096664,343.572174 212.397491,342.230042 
	C216.139175,338.369476 220.281723,334.897400 224.761078,330.823090 
	C220.026459,326.612732 215.630585,322.703613 210.736557,318.154388 
z"/>
<path fill="#FFFFFF" opacity="1.000000" stroke="none" 
	d="
M346.806030,400.698914 
	C348.001068,399.827545 349.079865,399.355133 349.882019,398.591919 
	C358.045105,390.825470 366.092377,382.936188 374.312347,375.230927 
	C383.568939,366.554077 392.969757,358.031128 402.709320,349.071930 
	C402.820953,350.603149 402.986328,351.817719 402.986694,353.032379 
	C402.993683,377.028564 402.761749,401.027588 403.076538,425.019562 
	C403.210938,435.263733 392.860199,447.571045 380.826294,447.219910 
	C355.851471,446.491119 330.840546,446.983917 305.844543,447.021332 
	C303.021545,447.025543 300.199036,447.330261 297.703552,447.476471 
	C313.821625,432.131775 330.191498,416.547333 346.806030,400.698914 
z"/>
<path fill="#FBFBFB" opacity="1.000000" stroke="none" 
	d="
M378.971405,343.078400 
	C376.923401,341.276184 374.875397,339.473969 372.827393,337.671753 
	C372.471039,337.987823 372.114716,338.303894 371.758362,338.619965 
	C372.999054,340.033905 374.412231,341.338348 375.408203,342.907623 
	C375.911743,343.701019 376.161652,345.464417 375.678040,345.957703 
	C361.498688,360.420746 347.294800,374.862366 332.881805,389.091644 
	C329.513489,392.417053 325.111725,391.367523 321.041107,389.985474 
	C319.588928,389.492462 318.191406,388.838654 316.768921,388.258240 
	C316.567627,388.886963 316.366302,389.515686 316.165009,390.144409 
	C319.652374,390.964874 323.139771,391.785339 327.257874,392.754181 
	C322.889709,397.276459 318.575409,401.812561 314.183044,406.271759 
	C309.257050,411.272614 304.326660,416.273132 299.255768,421.124969 
	C297.653961,422.657562 295.501434,424.904297 293.760742,424.768921 
	C287.668427,424.295258 283.981720,427.962036 280.821686,431.835938 
	C274.314575,439.812958 265.695312,444.270020 256.541626,448.122742 
	C255.588089,448.524048 254.890579,449.507263 253.954102,449.984833 
	C253.348694,450.293549 252.524292,450.172852 251.798035,450.244568 
	C251.907700,449.630005 251.890396,448.955841 252.146622,448.410095 
	C254.784912,442.791107 256.697449,436.619476 260.334686,431.735657 
	C264.774078,425.774780 270.672180,420.900299 276.184875,415.306885 
	C277.165680,417.865570 277.726624,419.328918 278.287537,420.792236 
	C278.627380,420.727142 278.967194,420.662048 279.307037,420.596954 
	C279.129303,419.477386 279.187897,418.250275 278.735474,417.255676 
	C275.788483,410.776917 276.138306,408.324371 281.148773,403.394775 
	C290.578522,394.117096 300.047699,384.879425 309.570343,375.556732 
	C309.816956,377.405365 310.128387,379.739899 310.439819,382.074432 
	C310.786407,382.037903 311.133026,382.001343 311.479614,381.964813 
	C311.524689,381.351898 311.742310,380.691132 311.587708,380.133575 
	C310.262085,375.353088 310.951904,371.369690 314.757324,367.651276 
	C327.736298,354.969025 340.531616,342.096466 353.256989,329.158813 
	C356.132385,326.235474 358.524780,324.238953 361.554901,329.293488 
	C361.859131,328.905090 362.163330,328.516663 362.467529,328.128265 
	C361.030029,326.104401 359.592529,324.080505 358.143768,322.040741 
	C362.173340,318.445038 366.255890,314.802094 370.662537,311.424469 
	C369.969025,313.456482 369.237335,315.490112 367.882172,316.941681 
	C363.091034,322.073608 363.808258,326.926117 369.988831,330.175842 
	C370.970184,330.691833 371.817291,331.558899 372.563843,332.406799 
	C374.417847,334.512512 376.347229,336.587311 377.902588,338.905182 
	C378.656830,340.029205 378.639465,341.671021 378.971405,343.078400 
M366.332367,333.351532 
	C366.579224,333.470245 366.826080,333.588959 367.072937,333.707672 
	C367.144531,333.470978 367.216125,333.234283 367.287720,332.997589 
	C366.947968,332.971680 366.608185,332.945770 366.332367,333.351532 
z"/>
<path fill="#FCFCFC" opacity="1.000000" stroke="none" 
	d="
M379.112488,343.397400 
	C378.639465,341.671021 378.656830,340.029205 377.902588,338.905182 
	C376.347229,336.587311 374.417847,334.512512 372.563843,332.406799 
	C371.817291,331.558899 370.970184,330.691833 369.988831,330.175842 
	C363.808258,326.926117 363.091034,322.073608 367.882172,316.941681 
	C369.237335,315.490112 369.969025,313.456482 370.980469,311.305969 
	C376.627350,305.815369 382.235352,300.657593 387.944580,295.614410 
	C395.486084,288.952759 403.159424,282.439270 410.641205,275.712067 
	C411.866425,274.610413 412.398041,272.737366 413.845032,271.286194 
	C414.282684,274.476318 414.341278,277.740509 418.358643,278.138458 
	C420.841797,278.384430 420.797302,277.931488 420.684875,280.403442 
	C420.646820,281.240143 420.993561,282.241089 421.492523,282.929077 
	C423.264160,285.372009 425.177338,287.712250 427.036865,290.091370 
	C419.626129,298.621521 412.209076,307.146179 404.806366,315.683289 
	C396.828583,324.883575 388.872314,334.102539 380.863251,343.275452 
	C380.558319,343.624695 379.800415,343.578400 379.112488,343.397400 
z"/>
<path fill="#FAFAFA" opacity="1.000000" stroke="none" 
	d="
M427.365509,289.957214 
	C425.177338,287.712250 423.264160,285.372009 421.492523,282.929077 
	C420.993561,282.241089 420.646820,281.240143 420.684875,280.403442 
	C420.797302,277.931488 420.841797,278.384430 418.358643,278.138458 
	C414.341278,277.740509 414.282684,274.476318 414.161774,271.149597 
	C413.232117,270.048218 412.580566,269.148743 411.870972,268.169128 
	C405.618134,273.905029 399.537903,279.493225 393.445648,285.068298 
	C386.369110,291.544189 379.336761,298.070923 372.133423,304.402893 
	C371.182648,305.238678 369.335999,305.055328 367.904236,305.343994 
	C368.189087,303.806244 367.938721,301.712494 368.854889,300.830597 
	C372.167236,297.642120 376.002472,295.003632 379.397369,291.892426 
	C384.376099,287.329681 389.074738,282.462250 394.023743,277.865723 
	C399.312195,272.953888 404.679108,268.116882 410.234985,263.516785 
	C410.825134,263.028137 413.269226,263.966858 414.244934,264.887848 
	C420.413544,270.710754 426.410614,276.715454 432.725464,282.344177 
	C432.986633,282.028198 432.907684,281.956879 432.907684,281.956879 
	C433.693146,284.659485 434.323303,287.157684 430.104034,287.496094 
	C429.244049,287.565063 428.494537,289.011505 427.365509,289.957214 
z"/>
<path fill="#FAFAFB" opacity="1.000000" stroke="none" 
	d="
M433.022400,282.067596 
	C430.719269,279.252014 428.469757,276.317139 426.012390,273.568146 
	C424.153259,271.488434 422.028687,269.646027 419.938904,267.617096 
	C428.000580,263.558624 433.429016,264.087463 436.538513,269.025391 
	C439.288055,273.391724 438.165863,278.460602 433.291138,281.959351 
	C432.907684,281.956879 432.986633,282.028198 433.022400,282.067596 
z"/>
<path fill="#000000" opacity="1.000000" stroke="none" 
	d="
M327.000000,149.993439 
	C337.495178,149.992599 347.499451,149.730392 357.482605,150.076660 
	C364.974792,150.336517 369.917511,154.781158 373.087616,161.405762 
	C376.237701,167.988510 375.589844,174.157516 371.443787,180.092728 
	C366.862976,186.650238 360.291321,188.987213 352.663696,188.989349 
	C284.696381,189.008453 216.729065,189.006668 148.761749,188.994080 
	C136.205856,188.991760 126.546242,180.259964 127.000023,168.220764 
	C127.383629,158.043182 137.702148,149.823395 145.587540,149.856445 
	C205.890839,150.109116 266.195648,149.994125 327.000000,149.993439 
z"/>
<path fill="#000000" opacity="1.000000" stroke="none" 
	d="
M264.000000,211.976059 
	C294.984741,211.975388 325.472107,212.192627 355.952454,211.826645 
	C363.952454,211.730576 373.703033,218.902328 374.887268,228.770386 
	C376.121155,239.052628 369.928680,247.495667 359.874878,249.945755 
	C356.906830,250.669052 353.762665,250.955200 350.698792,250.957703 
	C283.399078,251.012878 216.099319,251.008560 148.799561,250.992142 
	C135.910080,250.988998 126.262573,241.959946 127.028091,229.763397 
	C127.663513,219.639587 137.835693,211.796036 145.560516,211.850830 
	C184.871994,212.129761 224.186539,211.977402 264.000000,211.976059 
z"/>
<path fill="#000000" opacity="1.000000" stroke="none" 
	d="
M334.999847,126.999321 
	C273.195923,127.000168 211.891769,127.079391 150.588150,126.932938 
	C138.919022,126.905060 131.173111,122.574181 127.898254,111.759285 
	C124.515419,100.587799 133.535645,87.984604 145.255234,87.979683 
	C204.226974,87.954910 263.198730,87.970764 322.170471,87.972672 
	C333.664642,87.973038 345.159576,87.894463 356.652740,88.002846 
	C364.936523,88.080956 370.135590,92.871658 373.411865,99.951569 
	C376.575378,106.787750 374.777161,114.080147 369.918335,119.740379 
	C365.055969,125.404800 358.663147,126.507706 351.987366,126.929176 
	C346.511871,127.274879 340.997162,126.999428 334.999847,126.999321 
z"/>
<path fill="#000000" opacity="1.000000" stroke="none" 
	d="
M210.985626,318.474426 
	C215.630585,322.703613 220.026459,326.612732 224.761078,330.823090 
	C220.281723,334.897400 216.139175,338.369476 212.397491,342.230042 
	C211.096664,343.572174 210.230301,345.846466 210.130783,347.745605 
	C209.836990,353.352356 210.025848,358.984375 210.025848,365.022156 
	C205.354416,365.022156 200.971161,365.601593 196.806839,364.893524 
	C189.612000,363.670044 185.917267,368.132782 182.040543,372.678558 
	C180.155746,374.888672 178.290970,377.115845 175.968704,379.866455 
	C172.662430,376.086975 169.728058,372.819397 166.894257,369.466766 
	C164.479980,366.610443 162.053329,364.458466 157.734436,364.884949 
	C152.664856,365.385529 147.507980,365.002167 141.973816,365.002167 
	C141.973816,360.011414 141.440872,355.311890 142.108078,350.789368 
	C142.951416,345.072784 139.845917,341.850494 136.159119,338.675781 
	C133.178925,336.109467 130.140167,333.611237 126.932762,330.919464 
	C131.924393,326.468567 136.671585,322.376770 141.200760,318.056427 
	C141.945251,317.346313 141.915421,315.634247 141.930023,314.381561 
	C141.999695,308.404358 141.961243,302.425903 141.961243,296.970886 
	C148.689316,296.970886 155.100708,297.127014 161.492508,296.842621 
	C162.812759,296.783875 164.248505,295.258575 165.306366,294.110168 
	C168.745621,290.376434 172.034286,286.503998 176.298630,281.637726 
	C179.282135,285.033661 182.493423,287.667419 184.351257,291.045532 
	C187.064346,295.978699 190.742599,297.450897 196.026550,297.041046 
	C200.562454,296.689178 205.147278,296.968140 209.660507,296.968140 
	C210.003387,303.719147 210.369980,310.936768 210.985626,318.474426 
z"/>
<path fill="#FCFCFC" opacity="1.000000" stroke="none" 
	d="
M366.300415,333.135681 
	C366.608185,332.945770 366.947968,332.971680 367.287720,332.997589 
	C367.216125,333.234283 367.144531,333.470978 367.072937,333.707672 
	C366.826080,333.588959 366.579224,333.470245 366.300415,333.135681 
z"/>
</svg>